<?xml version="1.0" encoding="UTF-8"?><svg xmlns="http://www.w3.org/2000/svg" xmlns:xlink="http://www.w3.org/1999/xlink" height="364.4" preserveAspectRatio="xMidYMid meet" version="1.0" viewBox="0.0 0.0 398.9 364.4" width="398.9" zoomAndPan="magnify"><defs><clipPath id="a"><path d="M 50 134 L 398.859375 134 L 398.859375 336 L 50 336 Z M 50 134"/></clipPath><clipPath id="b"><path d="M 0 14 L 294 14 L 294 364.390625 L 0 364.390625 Z M 0 14"/></clipPath><clipPath id="c"><path d="M 141 46 L 398.859375 46 L 398.859375 295 L 141 295 Z M 141 46"/></clipPath></defs><g><g id="change1_3"><path d="M 86.347656 34.058594 C 83.585938 31.917969 80.84375 29.789062 78.144531 27.695312 C 77.265625 27.023438 76.394531 26.355469 75.523438 25.691406 L 74.140625 24.632812 C 73.304688 23.980469 72.472656 23.328125 71.644531 22.679688 C 68.347656 20.113281 65.082031 17.570312 61.84375 15.050781 L 59.582031 17.863281 C 58.835938 18.808594 58.140625 19.789062 57.425781 20.753906 C 56.015625 22.695312 54.605469 24.636719 53.199219 26.570312 C 52.511719 27.546875 51.792969 28.503906 51.136719 29.5 C 50.484375 30.496094 49.832031 31.496094 49.179688 32.492188 C 47.894531 34.492188 46.609375 36.492188 45.328125 38.488281 L 44.351562 40.058594 L 43.433594 41.65625 C 42.828125 42.726562 42.226562 43.792969 41.625 44.855469 C 40.441406 46.996094 39.261719 49.125 38.089844 51.242188 C 35.886719 55.546875 33.828125 59.875 31.8125 64.15625 C 29.960938 68.507812 28.136719 72.824219 26.453125 77.128906 C 19.910156 94.441406 15.777344 111.46875 13.503906 127.96875 C 11.234375 144.449219 10.828125 160.234375 11.8125 174.769531 C 12.785156 189.308594 15.078125 202.589844 17.957031 214.382812 C 20.777344 226.203125 24.429688 236.472656 27.902344 245.277344 C 31.476562 254.046875 35.007812 261.324219 38.105469 267.113281 C 39.675781 269.996094 41.089844 272.535156 42.320312 274.71875 C 43.617188 276.871094 44.734375 278.671875 45.636719 280.121094 C 47.453125 283.007812 48.398438 284.507812 48.398438 284.507812 C 48.398438 284.507812 47.601562 282.921875 46.070312 279.875 C 45.316406 278.347656 44.382812 276.457031 43.277344 274.214844 C 42.265625 271.933594 41.09375 269.292969 39.769531 266.3125 C 37.207031 260.328125 34.328125 252.863281 31.496094 243.984375 C 28.769531 235.078125 25.957031 224.789062 24.015625 213.113281 C 22.015625 201.460938 20.648438 188.484375 20.546875 174.449219 C 20.4375 160.425781 21.664062 145.351562 24.597656 129.773438 C 27.539062 114.179688 32.183594 98.21875 38.964844 82.121094 C 40.695312 78.117188 42.554688 74.109375 44.433594 70.074219 C 46.472656 66.109375 48.546875 62.105469 50.753906 58.132812 C 51.910156 56.175781 53.078125 54.210938 54.246094 52.234375 C 54.839844 51.253906 55.433594 50.269531 56.03125 49.28125 L 56.933594 47.808594 L 57.894531 46.363281 L 57.957031 46.273438 C 57.96875 46.257812 57.960938 46.261719 57.964844 46.257812 L 57.980469 46.242188 L 58.007812 46.210938 L 58.058594 46.152344 L 58.164062 46.035156 L 58.347656 45.835938 C 58.46875 45.710938 58.570312 45.605469 58.660156 45.519531 C 58.785156 45.695312 58.882812 45.84375 58.957031 45.972656 L 59.007812 46.066406 L 60.277344 46.925781 C 61.183594 47.535156 62.097656 48.148438 63.011719 48.765625 C 66 50.742188 69.035156 52.75 72.09375 54.773438 C 72.800781 55.242188 73.5 55.703125 74.210938 56.171875 C 77.109375 58.046875 80.039062 59.945312 82.988281 61.855469 C 87.804688 64.949219 92.691406 68.054688 97.652344 71.164062 C 105.660156 76.1875 113.578125 81.070312 121.324219 85.804688 C 125.199219 88.167969 129.023438 90.5 132.792969 92.796875 C 133.738281 93.367188 134.675781 93.9375 135.613281 94.507812 L 136.925781 95.300781 L 137.019531 95.324219 C 137.152344 95.359375 137.316406 95.410156 137.507812 95.480469 C 137.496094 95.554688 137.476562 95.640625 137.449219 95.738281 L 137.402344 95.894531 L 137.375 95.980469 L 137.347656 96.0625 C 137.347656 96.066406 137.347656 96.0625 137.34375 96.070312 L 137.308594 96.125 L 136.777344 96.980469 C 136.605469 97.273438 136.453125 97.570312 136.292969 97.867188 C 135.976562 98.457031 135.65625 99.046875 135.339844 99.632812 C 134.699219 100.804688 134.066406 101.972656 133.433594 103.132812 C 132.28125 105.511719 131.203125 107.894531 130.097656 110.230469 C 129.144531 112.636719 128.199219 115.015625 127.265625 117.367188 C 123.824219 126.890625 121.6875 136.398438 120.640625 145.414062 C 119.589844 154.433594 119.550781 162.984375 120.289062 170.828125 C 121.019531 178.675781 122.464844 185.804688 124.195312 192.121094 C 125.871094 198.460938 128.074219 203.925781 130.070312 208.613281 C 132.171875 213.273438 134.199219 217.132812 135.984375 220.183594 C 136.894531 221.695312 137.699219 223.035156 138.394531 224.191406 C 139.152344 225.3125 139.792969 226.253906 140.308594 227.015625 C 141.335938 228.53125 141.871094 229.320312 141.871094 229.320312 C 141.871094 229.320312 141.484375 228.449219 140.742188 226.773438 C 140.367188 225.941406 139.902344 224.910156 139.351562 223.691406 C 138.859375 222.445312 138.289062 221.007812 137.648438 219.382812 C 136.394531 216.136719 135.019531 212.089844 133.664062 207.324219 C 132.414062 202.53125 131.050781 197.046875 130.257812 190.851562 C 129.40625 184.675781 128.878906 177.847656 129.023438 170.511719 C 129.160156 163.175781 130.019531 155.339844 131.734375 147.21875 C 133.449219 139.109375 136.097656 130.664062 139.777344 122.363281 C 140.746094 120.3125 141.726562 118.242188 142.71875 116.148438 C 143.847656 114.128906 144.9375 112.066406 146.09375 110.023438 C 146.714844 109.023438 147.335938 108.019531 147.960938 107.011719 C 148.269531 106.507812 148.582031 106 148.890625 105.492188 C 149.046875 105.238281 149.195312 104.980469 149.359375 104.730469 L 149.875 104 C 150.519531 103.050781 151.160156 102.097656 151.804688 101.140625 L 152.765625 99.703125 C 153.082031 99.222656 153.460938 98.78125 153.804688 98.316406 C 154.5 97.394531 155.199219 96.472656 155.902344 95.546875 C 156.257812 95.085938 156.585938 94.605469 156.960938 94.160156 L 158.097656 92.835938 C 154.933594 90.222656 151.742188 87.589844 148.519531 84.933594 C 147.707031 84.261719 146.894531 83.589844 146.078125 82.914062 L 144.742188 81.796875 C 143.90625 81.089844 143.066406 80.386719 142.222656 79.675781 C 138.839844 76.84375 135.40625 73.96875 131.925781 71.054688 C 124.960938 65.238281 117.796875 59.304688 110.472656 53.328125 C 106.070312 49.738281 101.699219 46.210938 97.355469 42.746094 C 94.464844 40.453125 91.589844 38.179688 88.753906 35.929688 C 87.945312 35.300781 87.152344 34.683594 86.347656 34.058594" fill="#80cb2e"/></g><g id="change1_4"><path d="M 232.535156 103.871094 C 232.105469 102.910156 231.675781 101.945312 231.246094 100.976562 L 230.542969 99.382812 C 230.101562 98.382812 229.660156 97.375 229.214844 96.367188 C 227.4375 92.328125 225.628906 88.226562 223.800781 84.070312 C 220.121094 75.777344 216.347656 67.269531 212.511719 58.632812 C 208.644531 50.007812 204.792969 41.539062 200.972656 33.3125 C 199.042969 29.207031 197.140625 25.15625 195.265625 21.164062 C 194.789062 20.167969 194.316406 19.175781 193.847656 18.191406 L 193.097656 16.621094 C 192.648438 15.660156 192.199219 14.703125 191.753906 13.746094 C 189.980469 9.96875 188.21875 6.222656 186.476562 2.511719 C 184.863281 3.304688 183.257812 4.09375 181.648438 4.878906 C 180.050781 5.675781 178.4375 6.433594 176.898438 7.328125 C 175.34375 8.199219 173.796875 9.066406 172.25 9.933594 L 169.945312 11.242188 L 167.703125 12.652344 C 166.160156 13.648438 164.628906 14.644531 163.101562 15.636719 L 161.964844 16.378906 L 160.859375 17.171875 C 160.125 17.703125 159.394531 18.230469 158.664062 18.761719 C 157.445312 19.652344 156.230469 20.546875 155.023438 21.429688 L 154.121094 22.097656 L 153.25 22.804688 L 151.515625 24.214844 C 152.148438 25.007812 152.777344 25.796875 153.414062 26.59375 C 155.648438 29.441406 157.910156 32.324219 160.1875 35.226562 C 162.3125 33.582031 164.589844 32.128906 166.859375 30.617188 C 167.550781 30.15625 168.242188 29.699219 168.933594 29.238281 L 169.976562 28.550781 L 171.050781 27.90625 C 172.488281 27.054688 173.933594 26.199219 175.382812 25.339844 L 175.449219 25.300781 C 175.464844 25.292969 175.457031 25.296875 175.460938 25.292969 L 175.476562 25.289062 L 175.503906 25.277344 L 175.558594 25.257812 L 175.664062 25.222656 L 175.855469 25.15625 C 175.976562 25.121094 176.082031 25.09375 176.171875 25.070312 C 176.226562 25.273438 176.261719 25.441406 176.285156 25.578125 L 176.300781 25.679688 L 177.0625 27.011719 C 177.605469 27.964844 178.152344 28.917969 178.699219 29.875 C 180.917969 33.691406 183.167969 37.566406 185.445312 41.488281 C 190.035156 49.320312 194.808594 57.308594 199.695312 65.394531 C 204.617188 73.464844 209.460938 81.40625 214.183594 89.152344 C 216.554688 93.019531 218.898438 96.835938 221.207031 100.59375 C 221.78125 101.53125 222.359375 102.46875 222.929688 103.402344 L 223.734375 104.710938 L 223.796875 104.777344 C 223.878906 104.882812 223.984375 105.007812 224.109375 105.164062 C 224.09375 105.210938 224.070312 105.261719 224.039062 105.316406 L 223.992188 105.402344 L 223.964844 105.449219 L 223.941406 105.484375 L 223.941406 105.492188 C 223.941406 105.492188 223.941406 105.492188 223.9375 105.496094 L 223.90625 105.515625 C 223.308594 105.9375 222.710938 106.347656 222.105469 106.746094 L 221.652344 107.042969 L 221.230469 107.382812 L 220.386719 108.050781 C 219.824219 108.496094 219.261719 108.929688 218.695312 109.351562 C 218.167969 109.820312 217.640625 110.289062 217.121094 110.753906 C 216.601562 111.222656 216.046875 111.640625 215.550781 112.117188 C 215.070312 112.613281 214.585938 113.097656 214.097656 113.566406 C 210.242188 117.40625 207.109375 121.511719 204.636719 125.621094 C 202.160156 129.730469 200.34375 133.847656 198.984375 137.769531 C 198.6875 138.773438 198.375 139.742188 198.046875 140.683594 C 197.816406 141.664062 197.597656 142.628906 197.347656 143.554688 C 197.058594 144.460938 196.949219 145.421875 196.78125 146.328125 C 196.691406 146.78125 196.605469 147.230469 196.523438 147.671875 C 196.429688 148.109375 196.332031 148.542969 196.308594 148.988281 C 195.386719 155.980469 195.683594 161.320312 196.214844 164.917969 C 196.242188 165.144531 196.25 165.363281 196.285156 165.574219 C 196.328125 165.785156 196.371094 165.988281 196.410156 166.1875 C 196.480469 166.578125 196.550781 166.945312 196.613281 167.289062 C 196.75 167.96875 196.785156 168.539062 196.929688 168.996094 C 197.164062 169.90625 197.285156 170.382812 197.285156 170.382812 C 197.285156 170.382812 197.351562 169.898438 197.425781 168.976562 C 197.441406 168.515625 197.605469 167.941406 197.695312 167.269531 C 197.742188 166.933594 197.796875 166.574219 197.851562 166.1875 C 197.875 165.992188 197.902344 165.792969 197.925781 165.589844 C 197.957031 165.382812 198.019531 165.171875 198.0625 164.957031 C 198.65625 161.480469 199.914062 156.535156 202.289062 150.582031 C 202.40625 150.203125 202.59375 149.839844 202.773438 149.46875 C 202.949219 149.097656 203.121094 148.722656 203.296875 148.34375 C 203.644531 147.582031 203.925781 146.777344 204.378906 146.042969 C 204.796875 145.289062 205.171875 144.507812 205.558594 143.710938 C 206.039062 142.964844 206.5 142.195312 206.933594 141.402344 C 208.851562 138.320312 211.082031 135.214844 213.742188 132.214844 C 216.402344 129.214844 219.488281 126.320312 223.007812 123.671875 C 223.449219 123.34375 223.882812 123.007812 224.3125 122.65625 C 224.757812 122.324219 225.253906 122.050781 225.714844 121.730469 C 226.171875 121.410156 226.636719 121.089844 227.097656 120.765625 C 227.601562 120.492188 228.09375 120.207031 228.582031 119.910156 L 229.304688 119.449219 L 229.664062 119.210938 L 230.054688 119.019531 C 230.570312 118.761719 231.082031 118.488281 231.585938 118.203125 L 232.296875 117.761719 L 233.050781 117.394531 C 233.554688 117.152344 234.050781 116.894531 234.542969 116.625 C 235.019531 116.324219 235.558594 116.148438 236.074219 115.917969 C 236.589844 115.695312 237.101562 115.460938 237.605469 115.210938 C 235.933594 111.464844 234.242188 107.683594 232.535156 103.871094" fill="#80cb2e"/></g><g id="change1_5"><path d="M 146.386719 24.214844 C 144.207031 21.484375 142.039062 18.773438 139.902344 16.105469 C 139.210938 15.246094 138.519531 14.394531 137.828125 13.542969 L 136.734375 12.191406 C 136.074219 11.359375 135.417969 10.535156 134.765625 9.707031 C 132.160156 6.445312 129.578125 3.207031 127.019531 0.00390625 C 125.378906 1.3125 123.742188 2.617188 122.109375 3.921875 C 120.503906 5.261719 118.953125 6.660156 117.390625 8.035156 C 115.839844 9.421875 114.269531 10.78125 112.757812 12.203125 C 111.277344 13.652344 109.800781 15.105469 108.328125 16.550781 C 105.25 19.554688 102.441406 22.765625 99.636719 25.917969 C 97.246094 28.535156 95.121094 31.339844 92.941406 34.058594 C 93.742188 34.683594 94.539062 35.300781 95.34375 35.929688 C 98.183594 38.179688 101.058594 40.453125 103.949219 42.746094 C 106.039062 40.339844 108.070312 37.863281 110.347656 35.566406 C 113.058594 32.71875 115.765625 29.820312 118.722656 27.128906 L 118.792969 27.0625 C 118.804688 27.054688 118.800781 27.058594 118.804688 27.054688 L 118.820312 27.042969 L 118.847656 27.023438 L 118.90625 26.984375 L 119.015625 26.910156 L 119.214844 26.78125 C 119.34375 26.703125 119.453125 26.640625 119.546875 26.589844 C 119.636719 26.777344 119.707031 26.941406 119.753906 27.074219 L 119.785156 27.171875 L 120.828125 28.300781 C 121.570312 29.105469 122.320312 29.910156 123.070312 30.71875 C 125.527344 33.328125 128.019531 35.976562 130.535156 38.648438 C 131.113281 39.265625 131.691406 39.875 132.277344 40.492188 C 134.664062 42.984375 137.078125 45.511719 139.511719 48.046875 C 143.480469 52.167969 147.519531 56.320312 151.621094 60.496094 C 158.242188 67.242188 164.804688 73.839844 171.21875 80.257812 C 174.425781 83.464844 177.597656 86.632812 180.71875 89.746094 C 181.5 90.527344 182.277344 91.300781 183.050781 92.074219 L 184.140625 93.15625 L 184.222656 93.207031 C 184.335938 93.277344 184.472656 93.371094 184.636719 93.492188 C 184.621094 93.550781 184.59375 93.617188 184.5625 93.691406 L 184.507812 93.808594 L 184.476562 93.875 L 184.460938 93.90625 L 184.453125 93.925781 L 184.449219 93.933594 C 184.449219 93.933594 184.449219 93.933594 184.441406 93.941406 L 184.410156 93.976562 C 182.917969 95.417969 181.636719 97.03125 180.296875 98.558594 L 179.304688 99.703125 L 178.398438 100.914062 C 177.789062 101.710938 177.183594 102.503906 176.582031 103.292969 C 175.949219 104.058594 175.429688 104.898438 174.878906 105.710938 C 174.328125 106.519531 173.78125 107.324219 173.234375 108.128906 C 169.039062 114.640625 165.882812 121.347656 163.617188 127.929688 C 161.363281 134.507812 159.925781 140.984375 159.152344 146.988281 C 158.714844 149.980469 158.589844 152.878906 158.429688 155.628906 C 158.429688 157.011719 158.417969 158.359375 158.394531 159.667969 C 158.386719 160.980469 158.515625 162.261719 158.546875 163.503906 C 158.582031 164.125 158.582031 164.738281 158.632812 165.34375 C 158.699219 165.945312 158.765625 166.539062 158.828125 167.128906 C 158.886719 167.710938 158.941406 168.289062 159 168.859375 C 159.058594 169.425781 159.085938 169.984375 159.195312 170.53125 C 159.578125 172.726562 159.800781 174.78125 160.28125 176.667969 C 160.476562 177.613281 160.667969 178.523438 160.851562 179.398438 C 161.089844 180.261719 161.320312 181.089844 161.539062 181.882812 C 161.761719 182.675781 161.941406 183.433594 162.15625 184.148438 C 162.394531 184.855469 162.621094 185.527344 162.835938 186.160156 C 163.605469 188.71875 164.484375 190.601562 164.960938 191.898438 C 165.085938 192.222656 165.195312 192.507812 165.289062 192.75 C 165.402344 192.988281 165.496094 193.191406 165.570312 193.351562 C 165.726562 193.671875 165.804688 193.835938 165.804688 193.835938 C 165.804688 193.835938 165.765625 193.660156 165.695312 193.3125 C 165.660156 193.140625 165.617188 192.925781 165.5625 192.671875 C 165.527344 192.410156 165.484375 192.105469 165.4375 191.761719 C 165.273438 190.386719 164.847656 188.394531 164.640625 185.769531 C 164.566406 185.117188 164.488281 184.433594 164.402344 183.710938 C 164.34375 182.984375 164.324219 182.21875 164.269531 181.421875 C 164.214844 180.628906 164.15625 179.800781 164.097656 178.941406 C 164.089844 178.074219 164.082031 177.179688 164.074219 176.246094 C 163.972656 174.394531 164.140625 172.402344 164.160156 170.308594 C 164.152344 169.785156 164.222656 169.25 164.265625 168.710938 C 164.3125 168.171875 164.355469 167.628906 164.398438 167.074219 C 164.4375 166.523438 164.476562 165.960938 164.515625 165.394531 C 164.5625 164.828125 164.667969 164.257812 164.738281 163.679688 C 164.910156 162.523438 164.988281 161.335938 165.199219 160.132812 C 165.425781 158.929688 165.644531 157.699219 165.84375 156.445312 C 166.402344 153.949219 166.921875 151.355469 167.722656 148.703125 C 169.230469 143.390625 171.3125 137.769531 174.007812 132.226562 C 176.714844 126.675781 180.105469 121.15625 184.246094 115.890625 C 184.777344 115.242188 185.308594 114.589844 185.84375 113.933594 C 186.375 113.277344 186.871094 112.589844 187.480469 111.984375 C 188.054688 111.351562 188.632812 110.714844 189.210938 110.078125 L 190.070312 109.109375 L 191.011719 108.203125 C 192.253906 106.984375 193.429688 105.683594 194.804688 104.554688 C 195.417969 103.96875 196.035156 103.382812 196.652344 102.792969 C 197.289062 102.226562 197.976562 101.703125 198.625 101.144531 C 199.285156 100.601562 199.917969 100.015625 200.59375 99.480469 C 201.285156 98.96875 201.980469 98.453125 202.675781 97.9375 C 200.191406 94.671875 197.6875 91.375 195.160156 88.050781 C 194.523438 87.210938 193.886719 86.367188 193.246094 85.523438 L 192.199219 84.132812 C 191.546875 83.257812 190.886719 82.378906 190.226562 81.492188 C 187.578125 77.964844 184.890625 74.378906 182.167969 70.75 C 176.71875 63.492188 171.109375 56.070312 165.363281 48.566406 C 161.914062 44.054688 158.476562 39.609375 155.0625 35.226562 C 152.785156 32.324219 150.519531 29.441406 148.285156 26.59375 C 147.648438 25.796875 147.019531 25.007812 146.386719 24.214844" fill="#80cb2e"/></g><g clip-path="url(#a)" id="change1_2"><path d="M 394.730469 183.605469 C 369.246094 276.273438 273.464844 330.738281 180.796875 305.253906 C 102.378906 283.6875 51.328125 211.785156 52.917969 134.027344 C 39.246094 220.398438 92.398438 305.089844 178.691406 328.820312 C 271.359375 354.304688 367.140625 299.839844 392.625 207.171875 C 396.542969 192.921875 398.566406 178.597656 398.855469 164.464844 C 397.84375 170.84375 396.484375 177.234375 394.730469 183.605469" fill="#80cb2e"/></g><g clip-path="url(#b)" id="change1_1"><path d="M 176.367188 346.324219 C 68.824219 316.75 5.617188 205.589844 35.191406 98.046875 C 42.882812 70.078125 56.097656 45.113281 73.328125 23.996094 C 72.765625 23.558594 72.203125 23.117188 71.644531 22.679688 C 68.347656 20.113281 65.082031 17.570312 61.84375 15.050781 L 62.039062 14.765625 C 36.679688 39.234375 17.351562 70.613281 7.332031 107.054688 C -22.449219 215.347656 41.195312 327.28125 149.488281 357.0625 C 199.519531 370.820312 250.316406 364.628906 293.441406 343.316406 C 256.835938 355.480469 216.351562 357.320312 176.367188 346.324219" fill="#80cb2e"/></g><g id="change2_1"><path d="M 241.398438 269.6875 L 230.046875 284.503906 C 286.945312 284.199219 339.015625 246.339844 354.847656 188.78125 C 355.199219 187.488281 355.527344 186.195312 355.84375 184.902344 C 335.492188 232.445312 291.070312 264.1875 241.398438 269.6875 Z M 115.347656 217.3125 C 129.964844 243.710938 153.6875 265.039062 183.621094 276.207031 L 173.652344 260.488281 C 150.144531 251.171875 130.296875 236.074219 115.347656 217.3125" fill="#7a7d81"/></g><g clip-path="url(#c)" id="change3_1"><path d="M 208.375 294.699219 L 398.859375 46.0625 L 205.28125 228.363281 L 141.621094 189.441406 L 208.375 294.699219" fill="#52ace4"/></g><g id="change1_6"><path d="M 88.589844 95.679688 C 87.316406 95.679688 86.03125 95.339844 84.863281 94.628906 L 39.414062 66.816406 C 36.042969 64.753906 34.980469 60.351562 37.042969 56.980469 C 39.105469 53.609375 43.507812 52.550781 46.878906 54.609375 L 92.332031 82.421875 C 95.703125 84.484375 96.761719 88.886719 94.699219 92.257812 C 93.351562 94.464844 91 95.679688 88.589844 95.679688" fill="#80cb2e"/></g><g id="change1_7"><path d="M 72.980469 114.957031 C 72.027344 114.957031 71.058594 114.703125 70.1875 114.167969 L 24.734375 86.359375 C 22.207031 84.8125 21.410156 81.507812 22.957031 78.980469 C 24.503906 76.453125 27.808594 75.65625 30.335938 77.203125 L 75.785156 105.015625 C 78.316406 106.5625 79.109375 109.863281 77.5625 112.390625 C 76.550781 114.046875 74.789062 114.957031 72.980469 114.957031" fill="#80cb2e"/></g><g id="change1_8"><path d="M 65.867188 133.171875 C 65.070312 133.171875 64.265625 132.957031 63.539062 132.511719 L 18.085938 104.703125 C 15.980469 103.414062 15.316406 100.660156 16.605469 98.554688 C 17.894531 96.445312 20.648438 95.785156 22.753906 97.074219 L 68.207031 124.882812 C 70.3125 126.171875 70.976562 128.925781 69.6875 131.03125 C 68.84375 132.410156 67.375 133.171875 65.867188 133.171875" fill="#80cb2e"/></g></g></svg>